<?xml version="1.0" encoding="utf-8"?>
<!-- Generator: Adobe Illustrator 16.0.0, SVG Export Plug-In . SVG Version: 6.00 Build 0)  -->
<!DOCTYPE svg PUBLIC "-//W3C//DTD SVG 1.1//EN" "http://www.w3.org/Graphics/SVG/1.1/DTD/svg11.dtd">
<svg version="1.1" id="Layer_1" xmlns="http://www.w3.org/2000/svg" xmlns:xlink="http://www.w3.org/1999/xlink" x="0px" y="0px"
	 width="100px" height="72.043px" viewBox="0 0 100 72.043" enable-background="new 0 0 100 72.043" xml:space="preserve">
<path fill="#010101" d="M0,18.91l67.583,39.015L100,39.206L32.082,0L0,18.91z M44.538,24.647c1.594-0.428,3.15-0.683,4.614-0.741
	c4.393-0.179,7.878,1.235,8.559,3.776c0.895,3.336-3.377,7.402-9.633,9.156l-0.264,0.071c-6.374,1.708-12.265,0.327-13.172-3.06
	C33.733,30.463,38.164,26.354,44.538,24.647z"/>
<polygon fill="#010101" points="100,44.144 97.346,42.614 67.583,59.804 2.63,22.294 0,23.849 67.583,62.863 "/>
<polygon fill="#010101" points="67.583,67.453 100,48.733 97.346,47.204 67.583,64.392 2.63,26.884 0,28.437 "/>
<polygon fill="#010101" points="67.583,72.043 100,53.324 97.346,51.795 67.583,68.981 2.63,31.476 0,33.027 "/>
</svg>
