<svg xmlns="http://www.w3.org/2000/svg" xmlns:xlink="http://www.w3.org/1999/xlink" version="1.1" x="0px" y="0px" width="100px" height="100px" viewBox="0 0 100 100" enable-background="new 0 0 100 100" xml:space="preserve">
<g id="Captions">
</g>
<g id="Your_Icon">
	<path fill="#000000" d="M66.797,6.953H32.686c-3.429,0-6.205,2.777-6.205,6.203v73.688c0,3.423,2.775,6.201,6.205,6.201h34.111   c3.428,0,6.203-2.778,6.203-6.201V13.155C73,9.729,70.225,6.953,66.797,6.953z M49.741,90.299c-2.232,0-4.038-1.809-4.038-4.04   s1.805-4.039,4.038-4.039c2.229,0,4.036,1.808,4.036,4.039S51.97,90.299,49.741,90.299z M69.122,77.149   c0,1.284-1.042,2.329-2.325,2.329H32.686c-1.284,0-2.327-1.045-2.327-2.329V13.155c0-1.282,1.043-2.326,2.327-2.326h34.111   c1.283,0,2.325,1.043,2.325,2.326V77.149z"/>
	<rect x="35.324" y="20.161" fill="#000000" width="28.831" height="7.277"/>
	<rect x="35.324" y="34.203" fill="#000000" width="28.831" height="7.28"/>
	<rect x="35.324" y="48.244" fill="#000000" width="28.831" height="7.281"/>
	<rect x="35.324" y="62.287" fill="#000000" width="28.831" height="7.279"/>
</g>
</svg>